# xmcd
#
# Track frame offsets: 
#        150
#        37402
#        72991
#        111057
#        135668
#        154462
#        214549
#        245043
#        287931
#        304787
#
# Disc length: 4515 seconds
#
# Revision: 0
# Processed by: cddbd v1.5.2PL0 Copyright (c) Steve Scherf et al.
# Submitted via: ExactAudioCopy v1.0b1
#
DISCID=9e11a10a
DTITLE=Mike Garson Trio Vol.1 - Wild Out West
DYEAR=2012
DGENRE=Instrumental
TTITLE0=Tones For Joan's Bones
TTITLE1=Lullaby for Our Daughters
TTITLE2=Besame Mucho (Instrumental)
TTITLE3=Admiration
TTITLE4=You and the Night and the Music
TTITLE5=Bemsha Swing
TTITLE6=Climb Ev'ry Mountain
TTITLE7=It Could Happen to You
TTITLE8=Laura (Instrumental)
TTITLE9=Nardis
EXTD=
EXTT0=
EXTT1=
EXTT2=
EXTT3=
EXTT4=
EXTT5=
EXTT6=
EXTT7=
EXTT8=
EXTT9=
PLAYORDER=
